# xmcd CD database file generated by OrangeCD 6.1
#
# Track frame offsets:
#	183
#	23758
#	46283
#	61733
#	82108
#	103158
#	123658
#	145833
#	166683
#	182258
#	195808
#	228798
#	245508
#	268683
#
# Disc length: 3854 seconds
#
# Revision: 4
# Processed by: cddbd v1.5.2PL0 Copyright (c) Steve Scherf et al.
# Submitted via: OrangeCD 6.1
#
DISCID=ad0f0c0e
DTITLE=Various Artist - 59 - Glow
DYEAR=1998
DGENRE=New Age
TTITLE0=Acoustic Alchemy - Columbia
TTITLE1=Ken Navarro - The Best Of Time
TTITLE2=Jan Stevens - Memories Of Morocco
TTITLE3=Randy Goodrum - I'll Be Over You
TTITLE4=Chip Davis - On The Edge Of Forever
TTITLE5=Nyco F.G. Moretto - Dew
TTITLE6=Blue Knight - Highway Of Passion
TTITLE7=Flora Purim - Portal Da Cor
TTITLE8=Roger Shaw - Dreamscape
TTITLE9=Billy Mc Laughlin - South Of Winterwest
TTITLE10=Nova Nova - Tones
TTITLE11=Erotic Visions - Warm To TheTouch
TTITLE12=Laurence Juber - Lunar Eclipse
TTITLE13=Tadamitsu Saito - Deshyamo
EXTD=
EXTT0=
EXTT1=
EXTT2=
EXTT3=
EXTT4=
EXTT5=
EXTT6=
EXTT7=
EXTT8=
EXTT9=
EXTT10=
EXTT11=
EXTT12=
EXTT13=
PLAYORDER=
